<svg width="18" height="19" viewBox="0 0 18 19" fill="none" xmlns="http://www.w3.org/2000/svg">
<g clip-path="url(#clip0_2601_360)">
<path d="M10.9286 1.14288H7.07142C6.36135 1.14288 5.78571 1.71852 5.78571 2.4286V3.07145C5.78571 3.78153 6.36135 4.35717 7.07142 4.35717H10.9286C11.6386 4.35717 12.2143 3.78153 12.2143 3.07145V2.4286C12.2143 1.71852 11.6386 1.14288 10.9286 1.14288Z" stroke="#003366" stroke-width="1.28571" stroke-linecap="round" stroke-linejoin="round"/>
<path d="M12.5357 2.42859H14.4643C14.8053 2.42859 15.1323 2.56405 15.3734 2.80516C15.6145 3.04628 15.75 3.37331 15.75 3.7143V16.5714C15.75 16.9124 15.6145 17.2395 15.3734 17.4806C15.1323 17.7216 14.8053 17.8572 14.4643 17.8572H3.53571C3.19472 17.8572 2.8677 17.7216 2.62657 17.4806C2.38546 17.2395 2.25 16.9124 2.25 16.5714V3.7143C2.25 3.37331 2.38546 3.04628 2.62657 2.80516C2.8677 2.56405 3.19472 2.42859 3.53571 2.42859H5.46429" stroke="#003366" stroke-width="1.28571" stroke-linecap="round" stroke-linejoin="round"/>
<path d="M5.78571 10.7858H12.2143" stroke="#003366" stroke-width="1.28571" stroke-linecap="round" stroke-linejoin="round"/>
<path d="M5.78571 14H12.2143" stroke="#003366" stroke-width="1.28571" stroke-linecap="round" stroke-linejoin="round"/>
</g>
<defs>
<clipPath id="clip0_2601_360">
<rect width="18" height="18" fill="white" transform="translate(0 0.5)"/>
</clipPath>
</defs>
</svg>
