<svg width="18" height="19" viewBox="0 0 18 19" fill="none" xmlns="http://www.w3.org/2000/svg">
<g clip-path="url(#clip0_2601_226)">
<path d="M4.95642 14.6046C5.27894 14.0713 5.7057 13.6039 6.21503 13.2324C7.02379 12.6424 7.999 12.3245 9.00007 12.3245C10.0011 12.3245 10.9764 12.6424 11.7851 13.2324C12.2945 13.6039 12.7212 14.0713 13.0437 14.6046" stroke="#003366" stroke-width="1.28571" stroke-linecap="round" stroke-linejoin="round"/>
<path d="M9.00006 10.3759C10.307 10.3759 11.3666 9.31637 11.3666 8.00938C11.3666 6.7024 10.307 5.64288 9.00006 5.64288C7.69308 5.64288 6.63354 6.7024 6.63354 8.00938C6.63354 9.31637 7.69308 10.3759 9.00006 10.3759Z" stroke="#003366" stroke-width="1.28571" stroke-linecap="round" stroke-linejoin="round"/>
<path d="M6.63831 3.44416L7.24391 1.99072C7.48614 1.50625 7.84949 1.14288 8.45509 1.14288H9.54514C10.0296 1.14288 10.5141 1.50625 10.7563 1.99072L11.3619 3.44416L13.1787 4.53417L14.7532 4.29192C15.2377 4.1708 15.8432 4.41305 16.0855 4.89752L16.5701 5.74535C16.8123 6.22982 16.8123 6.71432 16.4489 7.19879L15.4799 8.40997V10.5901L16.4489 11.8013C16.8123 12.1646 16.8123 12.7702 16.5701 13.2547L16.0855 14.1025C15.8432 14.587 15.3588 14.8292 14.7532 14.7081L13.1787 14.4658L11.3619 15.556L10.7563 17.0094C10.5141 17.4938 10.1507 17.8572 9.54514 17.8572H8.45509C7.97062 17.8572 7.48614 17.4938 7.24391 17.0094L6.63831 15.556L4.82154 14.4658L3.24702 14.7081C2.76255 14.8292 2.15695 14.587 1.91471 14.1025L1.43025 13.2547C1.18801 12.7702 1.18798 12.2857 1.55134 11.8013L2.52031 10.5901V8.40997L1.55134 7.19879C1.18798 6.83543 1.18801 6.22982 1.43025 5.74535L1.91471 4.89752C2.15695 4.41305 2.64144 4.1708 3.24702 4.29192L4.82154 4.53417L6.63831 3.44416Z" stroke="#003366" stroke-width="1.28571" stroke-miterlimit="10" stroke-linecap="round" stroke-linejoin="round"/>
</g>
<defs>
<clipPath id="clip0_2601_226">
<rect width="18" height="18" fill="white" transform="translate(0 0.5)"/>
</clipPath>
</defs>
</svg>
